<?xml version="1.0" standalone="no"?>
<!DOCTYPE svg PUBLIC "-//W3C//DTD SVG 20010904//EN"
 "http://www.w3.org/TR/2001/REC-SVG-20010904/DTD/svg10.dtd">
<svg version="1.0" xmlns="http://www.w3.org/2000/svg"
 width="70.000000pt" height="70.000000pt" viewBox="0 0 70.000000 70.000000"
 preserveAspectRatio="xMidYMid meet">
<metadata>
Created by potrace 1.11, written by Peter Selinger 2001-2013
</metadata>
<g transform="translate(0.000000,70.000000) scale(0.100000,-0.100000)"
fill="#000000" stroke="none">
<path d="M0 350 l0 -350 350 0 350 0 0 350 0 350 -350 0 -350 0 0 -350z m267
108 c8 -11 42 -89 90 -205 4 -9 -6 -13 -30 -13 -26 0 -36 5 -40 20 -8 29 -93
29 -102 0 -4 -14 -15 -20 -36 -20 -16 0 -29 5 -29 11 0 18 82 204 94 211 17
12 43 9 53 -4z m287 -17 c20 -21 20 -21 1 -36 -11 -8 -27 -12 -35 -8 -60 24
-90 7 -90 -49 0 -40 36 -62 79 -47 27 10 35 9 49 -5 16 -16 15 -18 -8 -36 -16
-13 -41 -20 -72 -20 -39 0 -52 5 -77 30 -57 58 -48 137 22 181 39 25 100 20
131 -10z"/>
<path d="M227 366 c-11 -28 -8 -36 13 -36 23 0 25 9 7 34 -13 18 -14 18 -20 2z"/>
</g>
</svg>
